<svg xmlns="http://www.w3.org/2000/svg" width="240" height="240" viewBox="0 0 240 240">
  <!-- 占位收款码：把这里换成你自己的收款二维码（同名覆盖本文件，或改 src/config.js 里的 qrPath） -->
  <rect width="240" height="240" rx="12" fill="#ffffff" stroke="#ece5db" stroke-width="1"/>
  <g fill="#1a1a1f">
    <rect x="24" y="24" width="48" height="48" fill="#1a1a1f"/>
    <rect x="168" y="24" width="48" height="48" fill="#1a1a1f"/>
    <rect x="24" y="168" width="48" height="48" fill="#1a1a1f"/>
    <!-- 定位框 -->
    <rect x="29" y="29" width="38" height="38" fill="#ffffff"/>
    <rect x="34" y="34" width="28" height="28" fill="#1a1a1f"/>
    <rect x="173" y="29" width="38" height="38" fill="#ffffff"/>
    <rect x="178" y="34" width="28" height="28" fill="#1a1a1f"/>
    <rect x="29" y="173" width="38" height="38" fill="#ffffff"/>
    <rect x="34" y="178" width="28" height="28" fill="#1a1a1f"/>
    <!-- 伪数据模块 -->
    <rect x="92" y="30" width="16" height="16"/><rect x="116" y="30" width="16" height="16"/>
    <rect x="140" y="30" width="12" height="12"/><rect x="92" y="54" width="16" height="16"/>
    <rect x="116" y="54" width="12" height="12"/><rect x="152" y="48" width="16" height="16"/>
    <rect x="88" y="92" width="16" height="16"/><rect x="112" y="92" width="12" height="12"/>
    <rect x="136" y="92" width="16" height="16"/><rect x="92" y="116" width="12" height="12"/>
    <rect x="120" y="112" width="16" height="16"/><rect x="148" y="116" width="12" height="12"/>
    <rect x="92" y="136" width="16" height="16"/><rect x="116" y="140" width="12" height="12"/>
    <rect x="144" y="140" width="16" height="16"/><rect x="152" y="92" width="12" height="12"/>
    <rect x="176" y="92" width="16" height="16"/><rect x="176" y="116" width="12" height="12"/>
    <rect x="176" y="140" width="16" height="16"/><rect x="92" y="164" width="12" height="12"/>
    <rect x="112" y="164" width="16" height="16"/><rect x="136" y="164" width="12" height="12"/>
    <rect x="164" y="164" width="16" height="16"/><rect x="92" y="188" width="16" height="16"/>
    <rect x="136" y="188" width="16" height="16"/><rect x="164" y="192" width="12" height="12"/>
    <rect x="196" y="188" width="16" height="16"/><rect x="28" y="96" width="16" height="16"/>
    <rect x="28" y="120" width="12" height="12"/><rect x="56" y="96" width="16" height="16"/>
    <rect x="56" y="120" width="12" height="12"/>
  </g>
  <rect x="76" y="118" width="88" height="20" rx="4" fill="#ffffff"/>
  <text x="120" y="133" font-size="13" text-anchor="middle" fill="#54545a" font-family="Inter, system-ui, sans-serif">放你的收款码</text>
</svg>
